<svg width="37" height="37" viewBox="0 0 37 37" fill="none" xmlns="http://www.w3.org/2000/svg">
<path d="M36.4604 22.9426L33.2305 21.1571C33.5565 19.4732 33.5565 17.7458 33.2305 16.062L36.4604 14.2765C36.8319 14.0733 36.9987 13.6523 36.8773 13.2604C36.0358 10.6765 34.6028 8.33941 32.7301 6.39426C32.442 6.09668 31.9719 6.0241 31.608 6.22732L28.3781 8.0128C27.021 6.89506 25.4591 6.03135 23.7684 5.46523V1.90153C23.7684 1.49508 23.4727 1.13944 23.0557 1.05234C20.2732 0.457182 17.4224 0.486214 14.7764 1.05234C14.3594 1.13944 14.0637 1.49508 14.0637 1.90153V5.47249C12.3805 6.04587 10.8187 6.90958 9.45395 8.02006L6.23169 6.23458C5.86018 6.03135 5.39769 6.09668 5.10958 6.40151C3.23687 8.33941 1.80391 10.6765 0.96233 13.2676C0.833439 13.6595 1.00782 14.0805 1.37933 14.2837L4.60918 16.0692C4.28316 17.7531 4.28316 19.4805 4.60918 21.1644L1.37933 22.9498C1.00782 23.1531 0.841021 23.574 0.96233 23.966C1.80391 26.5498 3.23687 28.8869 5.10958 30.8321C5.39769 31.1296 5.86776 31.2022 6.23169 30.999L9.46154 29.2135C10.8187 30.3313 12.3805 31.195 14.0713 31.7611V35.332C14.0713 35.7385 14.367 36.0941 14.784 36.1812C17.5665 36.7764 20.4172 36.7474 23.0633 36.1812C23.4803 36.0941 23.776 35.7385 23.776 35.332V31.7611C25.4591 31.1877 27.021 30.324 28.3857 29.2135L31.6156 30.999C31.9871 31.2022 32.4496 31.1369 32.7377 30.8321C34.6104 28.8942 36.0434 26.5571 36.8849 23.966C36.9987 23.5668 36.8319 23.1458 36.4604 22.9426ZM18.916 24.416C15.5725 24.416 12.8506 21.8103 12.8506 18.6095C12.8506 15.4087 15.5725 12.8031 18.916 12.8031C22.2596 12.8031 24.9815 15.4087 24.9815 18.6095C24.9815 21.8103 22.2596 24.416 18.916 24.416Z" fill="#929292"/>
</svg>
