<svg width="51" height="51" viewBox="0 0 51 51" fill="none" xmlns="http://www.w3.org/2000/svg">
<circle cx="25.5" cy="25.2511" r="25" fill="#EFEFEF"/>
<g clip-path="url(#clip0)">
<path d="M25 25.2511C30.2078 25.2511 34.4286 20.9984 34.4286 15.7511C34.4286 10.5038 30.2078 6.2511 25 6.2511C19.7922 6.2511 15.5714 10.5038 15.5714 15.7511C15.5714 20.9984 19.7922 25.2511 25 25.2511ZM31.6 27.6261H30.3699C28.7346 28.3831 26.9152 28.8136 25 28.8136C23.0848 28.8136 21.2728 28.3831 19.6301 27.6261H18.4C12.9344 27.6261 8.5 32.0941 8.5 37.6011V40.6886C8.5 42.6554 10.0837 44.2511 12.0357 44.2511H37.9643C39.9163 44.2511 41.5 42.6554 41.5 40.6886V37.6011C41.5 32.0941 37.0656 27.6261 31.6 27.6261Z" fill="#4C67A5"/>
</g>
<defs>
<clipPath id="clip0">
<rect width="33" height="38" fill="white" transform="translate(8.5 6.2511)"/>
</clipPath>
</defs>
</svg>
