<svg width="36" height="28" viewBox="0 0 36 28" fill="none" xmlns="http://www.w3.org/2000/svg">
<path d="M1.05469 15.1953L12.8672 27.0078C13.9219 28.0625 15.75 27.3242 15.75 25.8125V19.0625H25.3125C26.2477 19.0625 27 18.3102 27 17.375V10.625C27 9.68987 26.2477 8.93753 25.3125 8.93753H15.75V2.18753C15.75 0.682843 13.9289 -0.0624694 12.8672 0.992218L1.05469 12.8047C0.40078 13.4657 0.40078 14.5344 1.05469 15.1953ZM22.5 26.6563V23.8438C22.5 23.3797 22.8797 23 23.3438 23H29.25C30.4945 23 31.5 21.9946 31.5 20.75V7.25003C31.5 6.0055 30.4945 5.00003 29.25 5.00003H23.3438C22.8797 5.00003 22.5 4.62034 22.5 4.15628V1.34378C22.5 0.879718 22.8797 0.500031 23.3438 0.500031H29.25C32.9766 0.500031 36 3.52347 36 7.25003V20.75C36 24.4766 32.9766 27.5 29.25 27.5H23.3438C22.8797 27.5 22.5 27.1203 22.5 26.6563Z" fill="#929292"/>
</svg>
